# normals
vn -1 0 0
vn 1 0 0
vn 0 0 1
vn 0 0 -1
vn 0 -1 0
vn 0 1 0

# texcoords
vt 0.0644531 0.5
vt 0.224609 0.5
vt 0.369141 0.5
vt 0.373047 0.5
vt 0.759766 0.5
vt 0.958984 0.5

# verts
v -7 2 2
v -7 2 -2
v -7 3 2
v -7 3 1
v -7 3 -2
v -7 3 -3
v -7 4 1
v -7 4 -0
v -7 6 -0
v -7 6 -3
v -6 1 -0
v -6 1 -3
v -6 2 -0
v -6 2 -2
v -6 2 -3
v -6 2 -4
v -6 3 -2
v -6 3 -3
v -6 4 1
v -6 4 -0
v -6 6 1
v -6 6 -0
v -6 6 -3
v -6 7 -0
v -6 7 -4
v -5 0 3
v -5 0 -3
v -5 1 3
v -5 1 2
v -5 1 -0
v -5 1 -3
v -5 1 -4
v -5 2 3
v -5 2 2
v -5 2 1
v -5 2 -0
v -5 2 -3
v -5 2 -4
v -5 2 -5
v -5 6 1
v -5 6 -0
v -5 7 -0
v -5 7 -4
v -5 8 3
v -5 8 2
v -5 8 -4
v -5 8 -5
v -5 9 2
v -5 9 -4
v -4 0 4
v -4 0 3
v -4 0 -3
v -4 0 -4
v -4 1 4
v -4 1 3
v -4 1 2
v -4 1 -3
v -4 1 -4
v -4 1 -5
v -4 2 3
v -4 2 2
v -4 2 -4
v -4 2 -5
v -4 8 3
v -4 8 2
v -4 8 -4
v -4 8 -5
v -4 9 3
v -4 9 2
v -4 9 -4
v -4 9 -5
v -2 2 3
v -2 2 2
v -2 3 3
v -2 3 2
v -1 1 4
v -1 1 3
v -1 2 4
v -1 2 3
v -1 3 4
v -1 3 3
v -1 3 2
v -1 4 3
v -1 4 2
v -1 7 3
v -1 7 2
v -1 8 3
v -1 8 2
v 1 0 3
v 1 0 -3
v 1 1 3
v 1 1 -3
v 2 0 4
v 2 0 3
v 2 0 -3
v 2 0 -4
v 2 1 4
v 2 1 3
v 2 1 -3
v 2 1 -4
v 3 2 3
v 3 2 2
v 3 3 3
v 3 3 2
v 3 7 3
v 3 7 2
v 3 8 3
v 3 8 2
v 4 3 3
v 4 3 2
v 4 7 3
v 4 7 2
v 6 2 2
v 6 2 1
v 6 3 2
v 6 3 1
v -6 2 2
v -6 2 1
v -6 3 2
v -6 3 1
v -4 3 3
v -4 3 2
v -4 7 3
v -4 7 2
v -3 2 3
v -3 2 2
v -3 3 3
v -3 3 2
v -3 7 3
v -3 7 2
v -3 8 3
v -3 8 2
v -2 0 4
v -2 0 3
v -2 0 -3
v -2 0 -4
v -2 1 4
v -2 1 3
v -2 1 -3
v -2 1 -4
v -1 0 3
v -1 0 -3
v -1 1 3
v -1 1 -3
v 1 1 4
v 1 1 3
v 1 2 4
v 1 2 3
v 1 3 4
v 1 3 3
v 1 3 2
v 1 4 3
v 1 4 2
v 1 7 3
v 1 7 2
v 1 8 3
v 1 8 2
v 2 2 3
v 2 2 2
v 2 3 3
v 2 3 2
v 4 0 4
v 4 0 3
v 4 0 -3
v 4 0 -4
v 4 1 4
v 4 1 3
v 4 1 2
v 4 1 -3
v 4 1 -4
v 4 1 -5
v 4 2 3
v 4 2 2
v 4 2 -4
v 4 2 -5
v 4 8 3
v 4 8 2
v 4 8 -4
v 4 8 -5
v 4 9 3
v 4 9 2
v 4 9 -4
v 4 9 -5
v 5 0 3
v 5 0 -3
v 5 1 3
v 5 1 2
v 5 1 -0
v 5 1 -3
v 5 1 -4
v 5 2 3
v 5 2 2
v 5 2 1
v 5 2 -0
v 5 2 -3
v 5 2 -4
v 5 2 -5
v 5 6 1
v 5 6 -0
v 5 7 -0
v 5 7 -4
v 5 8 3
v 5 8 2
v 5 8 -4
v 5 8 -5
v 5 9 2
v 5 9 -4
v 6 1 -0
v 6 1 -3
v 6 2 -0
v 6 2 -2
v 6 2 -3
v 6 2 -4
v 6 3 -2
v 6 3 -3
v 6 4 1
v 6 4 -0
v 6 6 1
v 6 6 -0
v 6 6 -3
v 6 7 -0
v 6 7 -4
v 7 2 2
v 7 2 -2
v 7 3 2
v 7 3 1
v 7 3 -2
v 7 3 -3
v 7 4 1
v 7 4 -0
v 7 6 -0
v 7 6 -3
v -4 0 4
v -4 1 4
v -2 0 4
v -2 1 4
v -1 1 4
v -1 2 4
v -1 3 4
v 1 1 4
v 1 2 4
v 1 3 4
v 2 0 4
v 2 1 4
v 4 0 4
v 4 1 4
v -5 0 3
v -5 1 3
v -5 2 3
v -5 8 3
v -4 0 3
v -4 1 3
v -4 2 3
v -4 3 3
v -4 7 3
v -4 8 3
v -4 9 3
v -3 2 3
v -3 3 3
v -3 7 3
v -3 8 3
v -2 0 3
v -2 1 3
v -2 2 3
v -2 3 3
v -1 0 3
v -1 1 3
v -1 2 3
v -1 3 3
v -1 4 3
v -1 7 3
v -1 8 3
v 1 0 3
v 1 1 3
v 1 2 3
v 1 3 3
v 1 4 3
v 1 7 3
v 1 8 3
v 2 0 3
v 2 1 3
v 2 2 3
v 2 3 3
v 3 2 3
v 3 3 3
v 3 7 3
v 3 8 3
v 4 0 3
v 4 1 3
v 4 2 3
v 4 3 3
v 4 7 3
v 4 8 3
v 4 9 3
v 5 0 3
v 5 1 3
v 5 2 3
v 5 8 3
v -7 2 2
v -7 3 2
v -6 2 2
v -6 3 2
v -5 1 2
v -5 2 2
v -5 8 2
v -5 9 2
v -4 1 2
v -4 2 2
v -4 3 2
v -4 7 2
v -4 8 2
v -4 9 2
v -3 2 2
v -3 3 2
v -3 6 2
v -3 7 2
v -3 8 2
v -2 2 2
v -2 3 2
v -1 3 2
v -1 4 2
v -1 6 2
v -1 7 2
v -1 8 2
v 1 3 2
v 1 4 2
v 1 6 2
v 1 7 2
v 1 8 2
v 2 2 2
v 2 3 2
v 3 2 2
v 3 3 2
v 3 6 2
v 3 7 2
v 3 8 2
v 4 1 2
v 4 2 2
v 4 3 2
v 4 7 2
v 4 8 2
v 4 9 2
v 5 1 2
v 5 2 2
v 5 8 2
v 5 9 2
v 6 2 2
v 6 3 2
v 7 2 2
v 7 3 2
v -7 3 1
v -7 4 1
v -6 2 1
v -6 3 1
v -6 4 1
v -6 6 1
v -5 2 1
v -5 6 1
v 5 2 1
v 5 6 1
v 6 2 1
v 6 3 1
v 6 4 1
v 6 6 1
v 7 3 1
v 7 4 1
v -7 4 -0
v -7 6 -0
v -6 1 -0
v -6 2 -0
v -6 4 -0
v -6 6 -0
v -6 7 -0
v -5 1 -0
v -5 2 -0
v -5 6 -0
v -5 7 -0
v 5 1 -0
v 5 2 -0
v 5 6 -0
v 5 7 -0
v 6 1 -0
v 6 2 -0
v 6 4 -0
v 6 6 -0
v 6 7 -0
v 7 4 -0
v 7 6 -0
v -7 2 -2
v -7 3 -2
v -6 2 -2
v -6 3 -2
v 6 2 -2
v 6 3 -2
v 7 2 -2
v 7 3 -2
v -7 3 -3
v -7 6 -3
v -6 1 -3
v -6 2 -3
v -6 3 -3
v -6 6 -3
v -5 0 -3
v -5 1 -3
v -5 2 -3
v -4 0 -3
v -4 1 -3
v -2 0 -3
v -2 1 -3
v -1 0 -3
v -1 1 -3
v 1 0 -3
v 1 1 -3
v 2 0 -3
v 2 1 -3
v 4 0 -3
v 4 1 -3
v 5 0 -3
v 5 1 -3
v 5 2 -3
v 6 1 -3
v 6 2 -3
v 6 3 -3
v 6 6 -3
v 7 3 -3
v 7 6 -3
v -6 2 -4
v -6 7 -4
v -5 1 -4
v -5 2 -4
v -5 7 -4
v -5 8 -4
v -5 9 -4
v -4 0 -4
v -4 1 -4
v -4 2 -4
v -4 8 -4
v -4 9 -4
v -2 0 -4
v -2 1 -4
v 2 0 -4
v 2 1 -4
v 4 0 -4
v 4 1 -4
v 4 2 -4
v 4 8 -4
v 4 9 -4
v 5 1 -4
v 5 2 -4
v 5 7 -4
v 5 8 -4
v 5 9 -4
v 6 2 -4
v 6 7 -4
v -5 2 -5
v -5 8 -5
v -4 1 -5
v -4 2 -5
v -4 8 -5
v -4 9 -5
v 4 1 -5
v 4 2 -5
v 4 8 -5
v 4 9 -5
v 5 2 -5
v 5 8 -5
v -4 0 4
v -2 0 4
v 2 0 4
v 4 0 4
v -5 0 3
v -4 0 3
v -2 0 3
v -1 0 3
v 1 0 3
v 2 0 3
v 4 0 3
v 5 0 3
v -5 0 -3
v -4 0 -3
v -2 0 -3
v -1 0 -3
v 1 0 -3
v 2 0 -3
v 4 0 -3
v 5 0 -3
v -4 0 -4
v -2 0 -4
v 2 0 -4
v 4 0 -4
v -1 1 4
v 1 1 4
v -1 1 3
v 1 1 3
v -6 1 -0
v -5 1 -0
v 5 1 -0
v 6 1 -0
v -6 1 -3
v -5 1 -3
v -4 1 -3
v -2 1 -3
v -1 1 -3
v 1 1 -3
v 2 1 -3
v 4 1 -3
v 5 1 -3
v 6 1 -3
v -5 1 -4
v -4 1 -4
v -2 1 -4
v 2 1 -4
v 4 1 -4
v 5 1 -4
v -4 1 -5
v 4 1 -5
v -5 2 3
v -4 2 3
v 4 2 3
v 5 2 3
v -7 2 2
v -6 2 2
v -5 2 2
v -4 2 2
v 4 2 2
v 5 2 2
v 6 2 2
v 7 2 2
v -6 2 1
v -5 2 1
v 5 2 1
v 6 2 1
v -6 2 -0
v -5 2 -0
v 5 2 -0
v 6 2 -0
v -7 2 -2
v -6 2 -2
v 6 2 -2
v 7 2 -2
v -6 2 -3
v -5 2 -3
v 5 2 -3
v 6 2 -3
v -6 2 -4
v -5 2 -4
v -4 2 -4
v 4 2 -4
v 5 2 -4
v 6 2 -4
v -5 2 -5
v -4 2 -5
v 4 2 -5
v 5 2 -5
v -7 3 -2
v -6 3 -2
v 6 3 -2
v 7 3 -2
v -7 3 -3
v -6 3 -3
v 6 3 -3
v 7 3 -3
v -4 7 3
v -3 7 3
v -1 7 3
v 1 7 3
v 3 7 3
v 4 7 3
v -4 7 2
v -3 7 2
v -1 7 2
v 1 7 2
v 3 7 2
v 4 7 2
v -3 8 3
v -1 8 3
v 1 8 3
v 3 8 3
v -3 8 2
v -1 8 2
v 1 8 2
v 3 8 2
v -4 1 4
v -2 1 4
v 2 1 4
v 4 1 4
v -5 1 3
v -4 1 3
v -2 1 3
v 2 1 3
v 4 1 3
v 5 1 3
v -5 1 2
v -4 1 2
v 4 1 2
v 5 1 2
v -3 2 3
v -2 2 3
v 2 2 3
v 3 2 3
v -3 2 2
v -2 2 2
v 2 2 2
v 3 2 2
v -1 3 4
v 1 3 4
v -4 3 3
v -3 3 3
v -2 3 3
v -1 3 3
v 1 3 3
v 2 3 3
v 3 3 3
v 4 3 3
v -7 3 2
v -6 3 2
v -4 3 2
v -3 3 2
v -2 3 2
v -1 3 2
v 1 3 2
v 2 3 2
v 3 3 2
v 4 3 2
v 6 3 2
v 7 3 2
v -7 3 1
v -6 3 1
v 6 3 1
v 7 3 1
v -1 4 3
v 1 4 3
v -1 4 2
v 1 4 2
v -7 4 1
v -6 4 1
v 6 4 1
v 7 4 1
v -7 4 -0
v -6 4 -0
v 6 4 -0
v 7 4 -0
v -6 6 1
v -5 6 1
v 5 6 1
v 6 6 1
v -7 6 -0
v -6 6 -0
v -5 6 -0
v 5 6 -0
v 6 6 -0
v 7 6 -0
v -7 6 -3
v -6 6 -3
v 6 6 -3
v 7 6 -3
v -6 7 -0
v -5 7 -0
v 5 7 -0
v 6 7 -0
v -6 7 -4
v -5 7 -4
v 5 7 -4
v 6 7 -4
v -5 8 3
v -4 8 3
v 4 8 3
v 5 8 3
v -5 8 2
v -4 8 2
v 4 8 2
v 5 8 2
v -5 8 -4
v -4 8 -4
v 4 8 -4
v 5 8 -4
v -5 8 -5
v -4 8 -5
v 4 8 -5
v 5 8 -5
v -4 9 3
v 4 9 3
v -5 9 2
v -4 9 2
v 4 9 2
v 5 9 2
v -5 9 -4
v -4 9 -4
v 4 9 -4
v 5 9 -4
v -4 9 -5
v 4 9 -5

# faces
f 3/2/1 2/2/1 1/2/1
f 4/2/1 2/2/1 3/2/1
f 5/2/1 2/2/1 4/2/1
f 7/2/1 6/2/1 5/2/1
f 7/2/1 5/2/1 4/2/1
f 8/2/1 6/2/1 7/2/1
f 9/2/1 6/2/1 8/2/1
f 10/2/1 6/2/1 9/2/1
f 13/2/1 12/2/1 11/2/1
f 14/2/1 12/2/1 13/2/1
f 15/2/1 12/2/1 14/2/1
f 17/2/1 16/2/1 15/2/1
f 17/2/1 15/2/1 14/2/1
f 18/2/1 16/2/1 17/2/1
f 21/2/1 20/2/1 19/2/1
f 22/2/1 20/2/1 21/2/1
f 23/2/1 16/2/1 18/2/1
f 24/2/1 23/2/1 22/2/1
f 25/2/1 16/2/1 23/2/1
f 25/2/1 23/2/1 24/2/1
f 28/1/1 27/1/1 26/1/1
f 29/1/1 27/1/1 28/1/1
f 30/1/1 27/1/1 29/1/1
f 31/1/1 27/1/1 30/1/1
f 34/2/1 30/2/1 29/2/1
f 35/2/1 30/2/1 34/2/1
f 36/2/1 30/2/1 35/2/1
f 37/2/1 32/2/1 31/2/1
f 38/2/1 32/2/1 37/2/1
f 40/2/1 34/2/1 33/2/1
f 40/2/1 35/2/1 34/2/1
f 42/2/1 41/2/1 40/2/1
f 43/2/1 39/2/1 38/2/1
f 44/2/1 42/2/1 40/2/1
f 44/2/1 43/2/1 42/2/1
f 44/2/1 40/2/1 33/2/1
f 45/2/1 43/2/1 44/2/1
f 46/2/1 39/2/1 43/2/1
f 46/2/1 43/2/1 45/2/1
f 47/2/1 39/2/1 46/2/1
f 48/2/1 46/2/1 45/2/1
f 49/2/1 46/2/1 48/2/1
f 54/1/1 51/1/1 50/1/1
f 55/1/1 51/1/1 54/1/1
f 57/1/1 53/1/1 52/1/1
f 58/1/1 53/1/1 57/1/1
f 60/2/1 56/2/1 55/2/1
f 61/2/1 56/2/1 60/2/1
f 62/2/1 59/2/1 58/2/1
f 63/2/1 59/2/1 62/2/1
f 68/2/1 65/2/1 64/2/1
f 69/2/1 65/2/1 68/2/1
f 70/2/1 67/2/1 66/2/1
f 71/2/1 67/2/1 70/2/1
f 74/3/1 73/3/1 72/3/1
f 75/3/1 73/3/1 74/3/1
f 78/4/1 77/4/1 76/4/1
f 79/4/1 77/4/1 78/4/1
f 80/3/1 79/3/1 78/3/1
f 81/3/1 79/3/1 80/3/1
f 83/3/1 82/3/1 81/3/1
f 84/3/1 82/3/1 83/3/1
f 87/2/1 86/2/1 85/2/1
f 88/2/1 86/2/1 87/2/1
f 91/1/1 90/1/1 89/1/1
f 92/1/1 90/1/1 91/1/1
f 97/1/1 94/1/1 93/1/1
f 98/1/1 94/1/1 97/1/1
f 99/1/1 96/1/1 95/1/1
f 100/1/1 96/1/1 99/1/1
f 103/2/1 102/2/1 101/2/1
f 104/2/1 102/2/1 103/2/1
f 107/2/1 106/2/1 105/2/1
f 108/2/1 106/2/1 107/2/1
f 111/2/1 110/2/1 109/2/1
f 112/2/1 110/2/1 111/2/1
f 115/2/1 114/2/1 113/2/1
f 116/2/1 114/2/1 115/2/1
f 117/2/2 118/2/2 119/2/2
f 119/2/2 118/2/2 120/2/2
f 121/2/2 122/2/2 123/2/2
f 123/2/2 122/2/2 124/2/2
f 125/2/2 126/2/2 127/2/2
f 127/2/2 126/2/2 128/2/2
f 129/2/2 130/2/2 131/2/2
f 131/2/2 130/2/2 132/2/2
f 133/1/2 134/1/2 137/1/2
f 137/1/2 134/1/2 138/1/2
f 135/1/2 136/1/2 139/1/2
f 139/1/2 136/1/2 140/1/2
f 141/1/2 142/1/2 143/1/2
f 143/1/2 142/1/2 144/1/2
f 145/4/2 146/4/2 147/4/2
f 147/4/2 146/4/2 148/4/2
f 147/3/2 148/3/2 149/3/2
f 149/3/2 148/3/2 150/3/2
f 150/3/2 151/3/2 152/3/2
f 152/3/2 151/3/2 153/3/2
f 154/2/2 155/2/2 156/2/2
f 156/2/2 155/2/2 157/2/2
f 158/3/2 159/3/2 160/3/2
f 160/3/2 159/3/2 161/3/2
f 162/1/2 163/1/2 166/1/2
f 166/1/2 163/1/2 167/1/2
f 164/1/2 165/1/2 169/1/2
f 169/1/2 165/1/2 170/1/2
f 167/2/2 168/2/2 172/2/2
f 172/2/2 168/2/2 173/2/2
f 170/2/2 171/2/2 174/2/2
f 174/2/2 171/2/2 175/2/2
f 176/2/2 177/2/2 180/2/2
f 180/2/2 177/2/2 181/2/2
f 178/2/2 179/2/2 182/2/2
f 182/2/2 179/2/2 183/2/2
f 184/1/2 185/1/2 186/1/2
f 186/1/2 185/1/2 187/1/2
f 187/1/2 185/1/2 188/1/2
f 188/1/2 185/1/2 189/1/2
f 187/2/2 188/2/2 192/2/2
f 192/2/2 188/2/2 193/2/2
f 193/2/2 188/2/2 194/2/2
f 189/2/2 190/2/2 195/2/2
f 195/2/2 190/2/2 196/2/2
f 191/2/2 192/2/2 198/2/2
f 192/2/2 193/2/2 198/2/2
f 198/2/2 199/2/2 200/2/2
f 196/2/2 197/2/2 201/2/2
f 198/2/2 200/2/2 202/2/2
f 200/2/2 201/2/2 202/2/2
f 191/2/2 198/2/2 202/2/2
f 202/2/2 201/2/2 203/2/2
f 201/2/2 197/2/2 204/2/2
f 203/2/2 201/2/2 204/2/2
f 204/2/2 197/2/2 205/2/2
f 203/2/2 204/2/2 206/2/2
f 206/2/2 204/2/2 207/2/2
f 208/2/2 209/2/2 210/2/2
f 210/2/2 209/2/2 211/2/2
f 211/2/2 209/2/2 212/2/2
f 212/2/2 213/2/2 214/2/2
f 211/2/2 212/2/2 214/2/2
f 214/2/2 213/2/2 215/2/2
f 216/2/2 217/2/2 218/2/2
f 218/2/2 217/2/2 219/2/2
f 215/2/2 213/2/2 220/2/2
f 219/2/2 220/2/2 221/2/2
f 220/2/2 213/2/2 222/2/2
f 221/2/2 220/2/2 222/2/2
f 223/2/2 224/2/2 225/2/2
f 225/2/2 224/2/2 226/2/2
f 226/2/2 224/2/2 227/2/2
f 227/2/2 228/2/2 229/2/2
f 226/2/2 227/2/2 229/2/2
f 229/2/2 228/2/2 230/2/2
f 230/2/2 228/2/2 231/2/2
f 231/2/2 228/2/2 232/2/2
f 235/1/3 234/1/3 233/1/3
f 236/1/3 234/1/3 235/1/3
f 240/4/3 238/4/3 237/4/3
f 241/3/3 239/3/3 238/3/3
f 241/4/3 238/4/3 240/4/3
f 242/3/3 239/3/3 241/3/3
f 245/1/3 244/1/3 243/1/3
f 246/1/3 244/1/3 245/1/3
f 251/1/3 248/1/3 247/1/3
f 252/1/3 248/1/3 251/1/3
f 253/2/3 250/2/3 249/2/3
f 254/2/3 250/2/3 253/2/3
f 255/2/3 250/2/3 254/2/3
f 256/2/3 250/2/3 255/2/3
f 258/2/3 253/2/3 252/2/3
f 258/2/3 254/2/3 253/2/3
f 259/2/3 254/2/3 258/2/3
f 260/2/3 257/2/3 256/2/3
f 260/2/3 256/2/3 255/2/3
f 261/2/3 257/2/3 260/2/3
f 263/2/3 258/2/3 252/2/3
f 264/2/3 258/2/3 263/2/3
f 266/1/3 263/1/3 262/1/3
f 267/2/3 264/2/3 263/2/3
f 267/1/3 263/1/3 266/1/3
f 268/3/3 265/3/3 264/3/3
f 268/2/3 264/2/3 267/2/3
f 269/3/3 265/3/3 268/3/3
f 272/2/3 257/2/3 261/2/3
f 276/3/3 270/3/3 269/3/3
f 277/3/3 270/3/3 276/3/3
f 278/2/3 272/2/3 271/2/3
f 279/2/3 257/2/3 272/2/3
f 279/2/3 272/2/3 278/2/3
f 280/1/3 274/1/3 273/1/3
f 281/2/3 275/2/3 274/2/3
f 281/1/3 274/1/3 280/1/3
f 282/3/3 276/3/3 275/3/3
f 282/2/3 275/2/3 281/2/3
f 283/3/3 276/3/3 282/3/3
f 284/2/3 282/2/3 281/2/3
f 287/2/3 257/2/3 279/2/3
f 289/2/3 284/2/3 281/2/3
f 289/2/3 285/2/3 284/2/3
f 290/2/3 285/2/3 289/2/3
f 291/2/3 285/2/3 290/2/3
f 292/2/3 287/2/3 286/2/3
f 293/2/3 257/2/3 287/2/3
f 293/2/3 287/2/3 292/2/3
f 294/2/3 257/2/3 293/2/3
f 295/1/3 289/1/3 288/1/3
f 296/1/3 289/1/3 295/1/3
f 297/2/3 291/2/3 290/2/3
f 297/2/3 292/2/3 291/2/3
f 297/2/3 293/2/3 292/2/3
f 298/2/3 293/2/3 297/2/3
f 301/2/3 300/2/3 299/2/3
f 302/2/3 300/2/3 301/2/3
f 307/2/3 304/2/3 303/2/3
f 308/2/3 304/2/3 307/2/3
f 311/2/3 306/2/3 305/2/3
f 312/2/3 306/2/3 311/2/3
f 314/6/3 310/6/3 309/6/3
f 315/6/3 310/6/3 314/6/3
f 316/6/3 310/6/3 315/6/3
f 318/6/3 314/6/3 313/6/3
f 319/5/3 315/5/3 314/5/3
f 319/6/3 314/6/3 318/6/3
f 320/5/3 315/5/3 319/5/3
f 321/5/3 315/5/3 320/5/3
f 322/6/3 317/6/3 316/6/3
f 322/5/3 315/5/3 321/5/3
f 322/6/3 316/6/3 315/6/3
f 323/6/3 317/6/3 322/6/3
f 324/6/3 317/6/3 323/6/3
f 326/6/3 322/6/3 321/6/3
f 326/6/3 323/6/3 322/6/3
f 327/6/3 323/6/3 326/6/3
f 328/6/3 323/6/3 327/6/3
f 331/5/3 326/5/3 325/5/3
f 331/5/3 327/5/3 326/5/3
f 332/6/3 331/6/3 330/6/3
f 333/5/3 327/5/3 331/5/3
f 333/6/3 331/6/3 332/6/3
f 334/6/3 329/6/3 328/6/3
f 334/5/3 327/5/3 333/5/3
f 334/6/3 328/6/3 327/6/3
f 335/6/3 329/6/3 334/6/3
f 336/6/3 329/6/3 335/6/3
f 339/6/3 334/6/3 333/6/3
f 339/6/3 335/6/3 334/6/3
f 340/6/3 335/6/3 339/6/3
f 343/2/3 338/2/3 337/2/3
f 344/2/3 338/2/3 343/2/3
f 345/2/3 342/2/3 341/2/3
f 346/2/3 342/2/3 345/2/3
f 349/2/3 348/2/3 347/2/3
f 350/2/3 348/2/3 349/2/3
f 354/2/3 352/2/3 351/2/3
f 355/2/3 352/2/3 354/2/3
f 357/2/3 354/2/3 353/2/3
f 357/2/3 356/2/3 355/2/3
f 357/2/3 355/2/3 354/2/3
f 358/2/3 356/2/3 357/2/3
f 361/2/3 360/2/3 359/2/3
f 362/2/3 360/2/3 361/2/3
f 363/2/3 360/2/3 362/2/3
f 364/2/3 360/2/3 363/2/3
f 365/2/3 363/2/3 362/2/3
f 366/2/3 363/2/3 365/2/3
f 371/2/3 368/2/3 367/2/3
f 372/2/3 368/2/3 371/2/3
f 374/2/3 370/2/3 369/2/3
f 375/2/3 370/2/3 374/2/3
f 376/2/3 373/2/3 372/2/3
f 377/2/3 373/2/3 376/2/3
f 382/2/3 379/2/3 378/2/3
f 383/2/3 379/2/3 382/2/3
f 385/2/3 381/2/3 380/2/3
f 386/2/3 381/2/3 385/2/3
f 387/2/3 385/2/3 384/2/3
f 388/2/3 385/2/3 387/2/3
f 389/2/4 390/2/4 391/2/4
f 391/2/4 390/2/4 392/2/4
f 393/2/4 394/2/4 395/2/4
f 395/2/4 394/2/4 396/2/4
f 397/2/4 398/2/4 401/2/4
f 401/2/4 398/2/4 402/2/4
f 399/2/4 400/2/4 404/2/4
f 404/2/4 400/2/4 405/2/4
f 403/1/4 404/1/4 406/1/4
f 406/1/4 404/1/4 407/1/4
f 408/1/4 409/1/4 410/1/4
f 410/1/4 409/1/4 411/1/4
f 412/1/4 413/1/4 414/1/4
f 414/1/4 413/1/4 415/1/4
f 416/1/4 417/1/4 418/1/4
f 418/1/4 417/1/4 419/1/4
f 419/2/4 420/2/4 421/2/4
f 421/2/4 420/2/4 422/2/4
f 423/2/4 424/2/4 425/2/4
f 425/2/4 424/2/4 426/2/4
f 427/2/4 428/2/4 430/2/4
f 430/2/4 428/2/4 431/2/4
f 429/2/4 430/2/4 435/2/4
f 435/2/4 430/2/4 436/2/4
f 432/2/4 433/2/4 437/2/4
f 437/2/4 433/2/4 438/2/4
f 434/1/4 435/1/4 439/1/4
f 439/1/4 435/1/4 440/1/4
f 441/1/4 442/1/4 443/1/4
f 443/1/4 442/1/4 444/1/4
f 444/2/4 445/2/4 448/2/4
f 448/2/4 445/2/4 449/2/4
f 446/2/4 447/2/4 451/2/4
f 451/2/4 447/2/4 452/2/4
f 449/2/4 450/2/4 453/2/4
f 453/2/4 450/2/4 454/2/4
f 455/2/4 456/2/4 458/2/4
f 458/2/4 456/2/4 459/2/4
f 457/2/4 458/2/4 461/2/4
f 459/2/4 460/2/4 461/2/4
f 458/2/4 459/2/4 461/2/4
f 461/2/4 460/2/4 462/2/4
f 462/2/4 460/2/4 463/2/4
f 463/2/4 460/2/4 464/2/4
f 462/2/4 463/2/4 465/2/4
f 465/2/4 463/2/4 466/2/4
f 472/1/5 468/1/5 467/1/5
f 473/1/5 468/1/5 472/1/5
f 476/1/5 470/1/5 469/1/5
f 477/1/5 470/1/5 476/1/5
f 479/1/5 474/1/5 473/1/5
f 479/1/5 472/1/5 471/1/5
f 479/1/5 473/1/5 472/1/5
f 480/1/5 474/1/5 479/1/5
f 481/1/5 474/1/5 480/1/5
f 482/1/5 474/1/5 481/1/5
f 483/1/5 478/1/5 477/1/5
f 483/1/5 477/1/5 476/1/5
f 483/1/5 476/1/5 475/1/5
f 484/1/5 478/1/5 483/1/5
f 485/1/5 478/1/5 484/1/5
f 486/1/5 478/1/5 485/1/5
f 487/1/5 481/1/5 480/1/5
f 488/1/5 481/1/5 487/1/5
f 489/1/5 485/1/5 484/1/5
f 490/1/5 485/1/5 489/1/5
f 493/4/5 492/4/5 491/4/5
f 494/4/5 492/4/5 493/4/5
f 499/2/5 496/2/5 495/2/5
f 500/2/5 496/2/5 499/2/5
f 503/2/5 494/2/5 493/2/5
f 504/2/5 494/2/5 503/2/5
f 507/2/5 498/2/5 497/2/5
f 508/2/5 498/2/5 507/2/5
f 509/2/5 501/2/5 500/2/5
f 510/2/5 501/2/5 509/2/5
f 511/2/5 505/2/5 504/2/5
f 511/2/5 503/2/5 502/2/5
f 511/2/5 504/2/5 503/2/5
f 512/2/5 505/2/5 511/2/5
f 513/2/5 507/2/5 506/2/5
f 514/2/5 507/2/5 513/2/5
f 515/2/5 512/2/5 511/2/5
f 515/2/5 513/2/5 512/2/5
f 515/2/5 511/2/5 510/2/5
f 516/2/5 513/2/5 515/2/5
f 523/2/5 518/2/5 517/2/5
f 524/2/5 518/2/5 523/2/5
f 525/2/5 520/2/5 519/2/5
f 526/2/5 520/2/5 525/2/5
f 529/2/5 522/2/5 521/2/5
f 532/2/5 528/2/5 527/2/5
f 533/2/5 530/2/5 529/2/5
f 533/2/5 529/2/5 521/2/5
f 534/2/5 530/2/5 533/2/5
f 535/2/5 532/2/5 531/2/5
f 536/2/5 528/2/5 532/2/5
f 536/2/5 532/2/5 535/2/5
f 537/2/5 533/2/5 521/2/5
f 538/2/5 533/2/5 537/2/5
f 539/2/5 528/2/5 536/2/5
f 540/2/5 528/2/5 539/2/5
f 545/2/5 542/2/5 541/2/5
f 546/2/5 542/2/5 545/2/5
f 549/2/5 544/2/5 543/2/5
f 550/2/5 544/2/5 549/2/5
f 551/2/5 547/2/5 546/2/5
f 552/2/5 547/2/5 551/2/5
f 553/2/5 549/2/5 548/2/5
f 554/2/5 549/2/5 553/2/5
f 559/2/5 556/2/5 555/2/5
f 560/2/5 556/2/5 559/2/5
f 561/2/5 558/2/5 557/2/5
f 562/2/5 558/2/5 561/2/5
f 569/2/5 564/2/5 563/2/5
f 570/2/5 564/2/5 569/2/5
f 571/2/5 566/2/5 565/2/5
f 572/2/5 566/2/5 571/2/5
f 573/2/5 568/2/5 567/2/5
f 574/2/5 568/2/5 573/2/5
f 579/2/5 576/2/5 575/2/5
f 580/2/5 576/2/5 579/2/5
f 581/2/5 578/2/5 577/2/5
f 582/2/5 578/2/5 581/2/5
f 583/1/6 584/1/6 588/1/6
f 588/1/6 584/1/6 589/1/6
f 585/1/6 586/1/6 590/1/6
f 590/1/6 586/1/6 591/1/6
f 587/1/6 588/1/6 593/1/6
f 593/1/6 588/1/6 594/1/6
f 591/1/6 592/1/6 595/1/6
f 595/1/6 592/1/6 596/1/6
f 597/2/6 598/2/6 601/2/6
f 601/2/6 598/2/6 602/2/6
f 599/2/6 600/2/6 603/2/6
f 603/2/6 600/2/6 604/2/6
f 605/3/6 606/3/6 610/3/6
f 610/3/6 606/3/6 611/3/6
f 607/2/6 608/2/6 617/2/6
f 617/2/6 608/2/6 618/2/6
f 609/3/6 610/3/6 619/3/6
f 619/3/6 610/3/6 620/3/6
f 611/3/6 612/3/6 621/3/6
f 621/3/6 612/3/6 622/3/6
f 613/2/6 614/2/6 623/2/6
f 623/2/6 614/2/6 624/2/6
f 615/2/6 616/2/6 627/2/6
f 627/2/6 616/2/6 628/2/6
f 625/2/6 626/2/6 629/2/6
f 629/2/6 626/2/6 630/2/6
f 631/3/6 632/3/6 633/3/6
f 633/3/6 632/3/6 634/3/6
f 635/2/6 636/2/6 639/2/6
f 639/2/6 636/2/6 640/2/6
f 637/2/6 638/2/6 641/2/6
f 641/2/6 638/2/6 642/2/6
f 643/2/6 644/2/6 648/2/6
f 648/2/6 644/2/6 649/2/6
f 645/2/6 646/2/6 650/2/6
f 650/2/6 646/2/6 651/2/6
f 647/2/6 648/2/6 653/2/6
f 653/2/6 648/2/6 654/2/6
f 651/2/6 652/2/6 655/2/6
f 655/2/6 652/2/6 656/2/6
f 657/2/6 658/2/6 661/2/6
f 661/2/6 658/2/6 662/2/6
f 659/2/6 660/2/6 663/2/6
f 663/2/6 660/2/6 664/2/6
f 665/2/6 666/2/6 669/2/6
f 669/2/6 666/2/6 670/2/6
f 667/2/6 668/2/6 671/2/6
f 671/2/6 668/2/6 672/2/6
f 673/2/6 674/2/6 677/2/6
f 677/2/6 674/2/6 678/2/6
f 675/2/6 676/2/6 679/2/6
f 679/2/6 676/2/6 680/2/6
f 681/2/6 682/2/6 684/2/6
f 684/2/6 682/2/6 685/2/6
f 683/2/6 684/2/6 687/2/6
f 685/2/6 686/2/6 687/2/6
f 684/2/6 685/2/6 687/2/6
f 687/2/6 686/2/6 688/2/6
f 688/2/6 686/2/6 689/2/6
f 689/2/6 686/2/6 690/2/6
f 688/2/6 689/2/6 691/2/6
f 691/2/6 689/2/6 692/2/6